<?xml version="1.0" encoding="utf-8"?>
<!-- Generator: Adobe Illustrator 20.1.0, SVG Export Plug-In . SVG Version: 6.00 Build 0)  -->
<svg version="1.1" id="Layer_1" xmlns="http://www.w3.org/2000/svg" xmlns:xlink="http://www.w3.org/1999/xlink" x="0px" y="0px"
	 viewBox="0 0 1515 525" style="enable-background:new 0 0 1515 525;" xml:space="preserve">
<style type="text/css">
	.st0{fill:url(#XMLID_3_);}
</style>
<circle id="XMLID_4_" cx="262.5" cy="262.5" r="257"/>
<linearGradient id="XMLID_3_" gradientUnits="userSpaceOnUse" x1="403.9214" y1="198.9214" x2="121.0786" y2="-83.9213" gradientTransform="matrix(1 0 0 -1 0 320)">
	<stop  offset="0" style="stop-color:#FFD25C"/>
	<stop  offset="1" style="stop-color:#CD8421"/>
</linearGradient>
<circle id="XMLID_7_" class="st0" cx="262.5" cy="262.5" r="200"/>
<g id="XMLID_2_">
	<path id="XMLID_6_" d="M166.2,342.2l69.8-96.8c12.7-16.6,22.7-28.6,35.3-43.6v-1h-97.4v-60.3h181.2v45.6l-66.6,92.8
		c-12.2,16.1-23.6,31.6-36.2,45.1v1h106.5v60.7H166.2V342.2z"/>
	<rect id="XMLID_5_" x="233.9" y="95.8" width="55.3" height="54"/>
	<rect id="XMLID_8_" x="233.9" y="375.2" width="55.3" height="54"/>
</g>
<g>
	<path d="M798,306.3l0.6,1.2c0.6,26.1-8.1,47.8-25.5,64c-17.4,16.8-41.6,24.8-71.4,24.8c-30.4,0-55.3-9.9-73.9-30.4
		c-19.3-20.5-28.6-46.6-28.6-78.3V238c0-31.7,9.3-57.8,28-78.3s42.9-31.1,73.3-31.1c30.4,0,54.7,8.1,72.7,24.2
		c18,16.2,26.1,37.9,26.1,65.2l-0.6,1.2h-42.2c0-17.4-5-31.1-14.3-41c-9.3-9.9-23.6-14.9-41.6-14.9c-18,0-31.7,6.8-42.2,21.1
		c-10.6,14.3-15.5,31.7-15.5,52.8V287c0,21.1,5.6,39.1,16.2,53.4c10.6,14.3,24.8,21.1,42.9,21.1c18,0,31.7-5,41-14.3
		c9.3-9.3,13.7-23,13.7-41C756.4,306.3,798,306.3,798,306.3z"/>
	<path d="M981.9,331.8H880l-20.5,60.9h-44.1L911.1,133h41l94.4,259.6h-44.1L981.9,331.8z M892.4,295.1h77l-37.9-111.2h-1.2
		L892.4,295.1z"/>
	<path d="M1217.3,325.5c0-10.6-3.7-19.9-11.8-26.7c-8.1-6.8-22.4-13-42.9-18.6c-29.2-7.5-51.6-17.4-67.1-30.4
		c-15.5-12.4-23.6-29.2-23.6-49.1c0-21.1,8.7-37.9,26.1-51.6c17.4-13.7,39.8-20.5,67.1-20.5c28.6,0,51.6,7.5,68.9,23
		c17.4,15.5,25.5,34.2,24.8,55.3l-0.6,1.2h-41.6c0-13-4.3-24.2-13.7-32.3s-21.7-12.4-38.5-12.4c-15.5,0-28,3.7-36.6,10.6
		c-8.7,6.8-13,15.5-13,26.7c0,9.9,4.3,18,13.7,24.8c9.3,6.8,24.2,12.4,46,18.6c28,7.5,49.1,18,64,31.1c14.9,13,21.7,29.8,21.7,50.3
		c0,21.7-8.7,39.1-26.1,51.6c-17.4,13-40.4,19.3-68.3,19.3c-27.3,0-50.9-7.5-71.4-21.7c-20.5-14.3-30.4-34.2-29.8-59l0.6-1.2h41.6
		c0,15.5,5.6,27.3,16.2,35.4c11.2,8.1,25.5,11.8,42.9,11.8c16.2,0,28.6-3.1,37.3-9.9C1212.9,344.8,1217.3,336.1,1217.3,325.5z"/>
	<path d="M1509.2,392h-43.5V281.4h-116.2V392h-43.5V132.4h43.5v114.3h116.2V132.4h43.5V392z"/>
</g>
</svg>
